<svg width="6400" height="803" viewBox="0 0 6400 803" fill="none" xmlns="http://www.w3.org/2000/svg">
<g filter="url(#filter0_d)">
<rect width="1310" height="750" rx="170" fill="#BEC8FF"/>
</g>
<path d="M190.834 577V147.5H279.334L318.834 353V147.5H401.834V577H317.834L274.834 362V577H190.834ZM564.857 147.5H678.357C712.691 147.5 737.191 158.667 751.857 181C766.524 203 773.857 235.333 773.857 278C773.857 320.667 767.357 352.833 754.357 374.5C741.357 396.167 718.024 407 684.357 407H649.357V577H564.857V147.5ZM654.357 329.5C664.691 329.5 672.191 327.667 676.857 324C681.857 320 685.024 314.5 686.357 307.5C688.024 300.167 688.857 289.833 688.857 276.5C688.857 258.5 686.857 245.5 682.857 237.5C678.857 229.5 670.857 225.5 658.857 225.5H649.357V329.5H654.357ZM1027.7 581C988.697 581 960.531 571.333 943.197 552C925.864 532.667 917.197 501.5 917.197 458.5V416.5H1001.7V470C1001.7 491.333 1008.53 502 1022.2 502C1029.86 502 1035.2 499.833 1038.2 495.5C1041.2 490.833 1042.7 483.167 1042.7 472.5C1042.7 458.5 1041.03 447 1037.7 438C1034.36 428.667 1030.03 421 1024.7 415C1019.7 408.667 1010.53 399 997.197 386L960.197 349C931.531 321 917.197 290 917.197 256C917.197 219.333 925.531 191.5 942.197 172.5C959.197 153.167 983.864 143.5 1016.2 143.5C1054.86 143.5 1082.7 153.833 1099.7 174.5C1116.7 194.833 1125.2 226.833 1125.2 270.5H1037.7L1037.2 241C1037.2 235.333 1035.53 230.833 1032.2 227.5C1029.2 224.167 1024.86 222.5 1019.2 222.5C1012.53 222.5 1007.53 224.333 1004.2 228C1000.86 231.667 999.197 236.667 999.197 243C999.197 257 1007.2 271.5 1023.2 286.5L1073.2 334.5C1084.86 345.833 1094.53 356.667 1102.2 367C1109.86 377 1116.03 389 1120.7 403C1125.36 416.667 1127.7 433 1127.7 452C1127.7 494.333 1119.86 526.5 1104.2 548.5C1088.86 570.167 1063.36 581 1027.7 581Z" fill="white"/>
<path d="M1639.89 115.375C1625.31 115.375 1611.77 118.891 1599.27 125.922C1587.03 132.693 1576.22 142.198 1566.84 154.438C1557.73 166.417 1550.57 180.609 1545.36 197.016C1540.15 213.422 1537.55 231 1537.55 249.75C1537.55 269.021 1541.84 286.859 1550.44 303.266C1559.29 319.411 1571.4 333.604 1586.77 345.844C1602.39 357.823 1620.62 367.198 1641.45 373.969C1662.55 380.74 1685.46 384.125 1710.2 384.125C1728.17 384.125 1745.1 382.562 1760.98 379.438C1777.13 376.052 1791.19 371.625 1803.17 366.156C1815.15 360.688 1824.66 354.307 1831.69 347.016C1838.72 339.464 1842.23 331.521 1842.23 323.188C1842.23 316.677 1841.06 311.339 1838.72 307.172C1836.38 302.745 1833.64 298.839 1830.52 295.453C1827.65 291.807 1825.05 288.292 1822.7 284.906C1820.36 281.26 1819.19 276.703 1819.19 271.234C1819.19 266.026 1820.49 261.078 1823.09 256.391C1825.7 251.703 1829.21 247.536 1833.64 243.891C1838.33 240.245 1843.54 237.38 1849.27 235.297C1855.26 233.214 1861.38 232.172 1867.62 232.172C1875.18 232.172 1882.21 234.125 1888.72 238.031C1895.49 241.938 1901.22 247.406 1905.91 254.438C1910.85 261.208 1914.63 269.281 1917.23 278.656C1920.1 287.771 1921.53 297.536 1921.53 307.953C1921.53 329.047 1915.93 348.708 1904.73 366.938C1893.54 384.906 1878.04 400.401 1858.25 413.422C1838.46 426.443 1815.02 436.729 1787.94 444.281C1760.85 451.573 1731.43 455.219 1699.66 455.219C1664.5 455.219 1632.08 450.531 1602.39 441.156C1572.7 431.521 1547.05 418.24 1525.44 401.312C1504.08 384.385 1487.42 364.333 1475.44 341.156C1463.46 317.979 1457.47 292.589 1457.47 264.984C1457.47 234.776 1462.68 206.26 1473.09 179.438C1483.77 152.615 1498.22 129.177 1516.45 109.125C1534.68 89.0729 1555.91 73.1875 1580.12 61.4688C1604.6 49.75 1630.65 43.8906 1658.25 43.8906C1670.49 43.8906 1681.69 45.3229 1691.84 48.1875C1702.26 50.7917 1711.24 54.5677 1718.8 59.5156C1726.35 64.4635 1732.21 70.3229 1736.38 77.0938C1740.8 83.6042 1743.02 90.7656 1743.02 98.5781C1743.02 104.828 1741.58 110.818 1738.72 116.547C1736.11 122.016 1732.6 126.964 1728.17 131.391C1723.74 135.557 1718.54 138.943 1712.55 141.547C1706.82 144.151 1700.7 145.453 1694.19 145.453C1687.42 145.453 1681.95 143.891 1677.78 140.766C1673.88 137.641 1670.23 134.255 1666.84 130.609C1663.46 126.703 1659.81 123.188 1655.91 120.062C1652 116.938 1646.66 115.375 1639.89 115.375ZM1997.22 378.266C1992.79 378.266 1989.41 376.052 1987.06 371.625C1984.98 367.198 1983.94 360.948 1983.94 352.875C1983.94 351.573 1983.94 350.141 1983.94 348.578C1983.94 346.755 1984.2 343.37 1984.72 338.422C1985.5 319.672 1994.74 308.734 2012.45 305.609L2021.44 304.828C2027.43 304.047 2032.11 302.224 2035.5 299.359C2038.89 296.234 2041.36 291.938 2042.92 286.469C2047.35 271.625 2051.78 256.651 2056.2 241.547C2060.63 226.443 2065.32 211.469 2070.27 196.625C2072.87 188.292 2075.47 179.438 2078.08 170.062C2080.94 160.427 2083.94 150.922 2087.06 141.547C2090.45 132.172 2094.22 122.927 2098.39 113.812C2102.82 104.698 2107.77 96.3646 2113.23 88.8125C2115.58 85.6875 2118.83 82.4323 2123 79.0469C2127.17 75.6615 2131.85 72.6667 2137.06 70.0625C2142.53 67.1979 2148.26 64.9844 2154.25 63.4219C2160.5 61.599 2166.62 60.6875 2172.61 60.6875C2180.42 60.6875 2188.1 63.1615 2195.66 68.1094C2205.81 75.1406 2215.84 83.6042 2225.73 93.5C2235.63 103.396 2246.7 116.026 2258.94 131.391C2271.18 146.755 2285.37 165.375 2301.52 187.25C2317.66 208.865 2337.06 235.036 2359.72 265.766C2363.1 269.672 2366.62 272.667 2370.27 274.75C2374.17 276.573 2378.73 277.484 2383.94 277.484H2406.2C2415.32 277.484 2422.35 279.698 2427.3 284.125C2432.51 288.292 2435.11 294.151 2435.11 301.703C2435.11 303.266 2434.98 305.089 2434.72 307.172C2434.72 309.255 2434.33 311.339 2433.55 313.422L2426.12 335.297C2425.6 337.38 2425.21 339.203 2424.95 340.766C2424.69 342.328 2424.56 343.891 2424.56 345.453C2424.56 350.922 2426.39 356.521 2430.03 362.25L2471.83 419.281C2476.52 426.312 2478.86 432.953 2478.86 439.203C2478.86 448.578 2473.52 456.781 2462.84 463.812L2448 474.359C2444.35 476.703 2440.84 478.526 2437.45 479.828C2434.33 481.13 2431.07 481.781 2427.69 481.781C2423 481.781 2418.57 480.349 2414.41 477.484C2410.5 474.88 2406.72 471.234 2403.08 466.547C2390.58 448.839 2377.95 431.391 2365.19 414.203C2352.69 397.016 2339.93 379.958 2326.91 363.031C2320.92 354.698 2312.97 350.531 2303.08 350.531C2271.31 351.833 2239.8 353.656 2208.55 356C2177.56 358.083 2146.44 360.688 2115.19 363.812C2103.99 364.854 2096.96 370.844 2094.09 381.781L2076.52 446.234C2071.83 463.422 2061.41 472.016 2045.27 472.016H2039.02L2026.91 470.453C2018.05 469.672 2011.28 466.938 2006.59 462.25C2002.17 457.562 1999.95 451.443 1999.95 443.891C1999.95 442.328 2000.08 440.635 2000.34 438.812C2000.6 436.99 2000.99 435.036 2001.52 432.953C2002.82 427.745 2004.12 422.406 2005.42 416.938C2006.98 411.469 2008.55 406.13 2010.11 400.922C2010.63 398.839 2011.02 397.016 2011.28 395.453C2011.54 393.63 2011.67 391.938 2011.67 390.375C2011.67 382.302 2008.55 378.266 2002.3 378.266H1997.22ZM2183.16 172.016C2180.55 169.672 2178.21 167.719 2176.12 166.156C2174.04 164.594 2171.83 163.812 2169.48 163.812C2162.97 163.812 2158.42 168.37 2155.81 177.484C2150.6 192.849 2145.53 208.083 2140.58 223.188C2135.89 238.031 2131.07 253.266 2126.12 268.891C2125.6 270.193 2125.34 271.365 2125.34 272.406C2125.34 273.448 2125.34 274.62 2125.34 275.922C2125.34 285.557 2130.42 290.375 2140.58 290.375H2144.48C2160.11 288.292 2175.73 286.729 2191.36 285.688C2206.98 284.385 2222.61 283.344 2238.23 282.562C2243.44 282.042 2247.48 280.74 2250.34 278.656C2253.47 276.312 2255.03 273.318 2255.03 269.672C2255.03 266.286 2253.47 262.25 2250.34 257.562C2239.41 242.979 2228.34 228.656 2217.14 214.594C2206.2 200.271 2194.88 186.078 2183.16 172.016ZM2674.08 482.562C2666.53 483.865 2659.76 485.297 2653.77 486.859C2647.78 488.682 2640.35 489.594 2631.5 489.594C2621.86 489.594 2614.44 486.859 2609.23 481.391C2604.03 475.922 2601.42 469.802 2601.42 463.031C2601.42 457.562 2602.33 450.531 2604.16 441.938C2605.98 433.083 2606.89 424.229 2606.89 415.375C2605.07 381.781 2602.59 348.578 2599.47 315.766C2596.6 282.693 2593.74 252.484 2590.88 225.141C2588.01 197.797 2585.54 174.49 2583.45 155.219C2581.37 135.688 2580.33 122.406 2580.33 115.375C2580.33 110.688 2581.5 106.391 2583.84 102.484C2586.19 98.3177 2589.44 94.6719 2593.61 91.5469C2597.78 88.4219 2602.59 86.0781 2608.06 84.5156C2613.79 82.6927 2619.78 81.7812 2626.03 81.7812C2638.27 81.7812 2647.26 83.7344 2652.98 87.6406C2658.71 91.2865 2662.23 97.276 2663.53 105.609C2670.82 161.599 2676.03 213.031 2679.16 259.906C2682.54 306.521 2684.89 350.271 2686.19 391.156C2686.19 397.146 2687.75 401.703 2690.88 404.828C2694.26 407.953 2698.56 409.516 2703.77 409.516C2714.18 409.516 2724.73 408.995 2735.41 407.953C2746.08 406.651 2756.76 405.349 2767.44 404.047C2778.11 402.745 2788.66 401.573 2799.08 400.531C2809.76 399.229 2820.04 398.578 2829.94 398.578C2836.45 398.578 2841.66 399.359 2845.56 400.922C2849.73 402.484 2852.85 404.568 2854.94 407.172C2857.28 409.776 2858.71 412.771 2859.23 416.156C2860.02 419.281 2860.41 422.406 2860.41 425.531C2860.41 430.479 2859.89 435.427 2858.84 440.375C2857.8 445.323 2855.98 449.88 2853.38 454.047C2850.77 457.953 2847.26 461.208 2842.83 463.812C2838.4 466.677 2832.8 468.37 2826.03 468.891C2794 472.016 2764.7 474.359 2738.14 475.922C2711.84 477.484 2690.48 479.698 2674.08 482.562ZM3126.33 115.375C3111.74 115.375 3098.2 118.891 3085.7 125.922C3073.46 132.693 3062.66 142.198 3053.28 154.438C3044.17 166.417 3037.01 180.609 3031.8 197.016C3026.59 213.422 3023.98 231 3023.98 249.75C3023.98 269.021 3028.28 286.859 3036.88 303.266C3045.73 319.411 3057.84 333.604 3073.2 345.844C3088.83 357.823 3107.06 367.198 3127.89 373.969C3148.98 380.74 3171.9 384.125 3196.64 384.125C3214.61 384.125 3231.54 382.562 3247.42 379.438C3263.57 376.052 3277.63 371.625 3289.61 366.156C3301.59 360.688 3311.09 354.307 3318.12 347.016C3325.16 339.464 3328.67 331.521 3328.67 323.188C3328.67 316.677 3327.5 311.339 3325.16 307.172C3322.81 302.745 3320.08 298.839 3316.95 295.453C3314.09 291.807 3311.48 288.292 3309.14 284.906C3306.8 281.26 3305.62 276.703 3305.62 271.234C3305.62 266.026 3306.93 261.078 3309.53 256.391C3312.14 251.703 3315.65 247.536 3320.08 243.891C3324.77 240.245 3329.97 237.38 3335.7 235.297C3341.69 233.214 3347.81 232.172 3354.06 232.172C3361.61 232.172 3368.65 234.125 3375.16 238.031C3381.93 241.938 3387.66 247.406 3392.34 254.438C3397.29 261.208 3401.07 269.281 3403.67 278.656C3406.54 287.771 3407.97 297.536 3407.97 307.953C3407.97 329.047 3402.37 348.708 3391.17 366.938C3379.97 384.906 3364.48 400.401 3344.69 413.422C3324.9 426.443 3301.46 436.729 3274.38 444.281C3247.29 451.573 3217.86 455.219 3186.09 455.219C3150.94 455.219 3118.52 450.531 3088.83 441.156C3059.14 431.521 3033.49 418.24 3011.88 401.312C2990.52 384.385 2973.85 364.333 2961.88 341.156C2949.9 317.979 2943.91 292.589 2943.91 264.984C2943.91 234.776 2949.11 206.26 2959.53 179.438C2970.21 152.615 2984.66 129.177 3002.89 109.125C3021.12 89.0729 3042.34 73.1875 3066.56 61.4688C3091.04 49.75 3117.08 43.8906 3144.69 43.8906C3156.93 43.8906 3168.12 45.3229 3178.28 48.1875C3188.7 50.7917 3197.68 54.5677 3205.23 59.5156C3212.79 64.4635 3218.65 70.3229 3222.81 77.0938C3227.24 83.6042 3229.45 90.7656 3229.45 98.5781C3229.45 104.828 3228.02 110.818 3225.16 116.547C3222.55 122.016 3219.04 126.964 3214.61 131.391C3210.18 135.557 3204.97 138.943 3198.98 141.547C3193.26 144.151 3187.14 145.453 3180.62 145.453C3173.85 145.453 3168.39 143.891 3164.22 140.766C3160.31 137.641 3156.67 134.255 3153.28 130.609C3149.9 126.703 3146.25 123.188 3142.34 120.062C3138.44 116.938 3133.1 115.375 3126.33 115.375ZM3495.77 134.516C3497.33 125.401 3501.76 118.63 3509.05 114.203C3516.34 109.516 3528.45 107.172 3545.38 107.172C3554.49 107.172 3561.52 109.516 3566.47 114.203C3571.68 118.891 3574.28 125.401 3574.28 133.734C3574.28 135.036 3574.15 136.208 3573.89 137.25C3573.63 138.292 3573.5 139.464 3573.5 140.766C3570.64 157.693 3568.29 175.271 3566.47 193.5C3564.65 211.729 3563.73 230.219 3563.73 248.969C3563.73 273.188 3565.82 296.104 3569.98 317.719C3574.41 339.073 3582.09 357.823 3593.03 373.969C3604.23 389.854 3619.33 402.484 3638.34 411.859C3657.61 420.974 3682.09 425.531 3711.78 425.531C3728.45 425.531 3743.16 422.536 3755.92 416.547C3768.68 410.557 3779.23 402.354 3787.56 391.938C3796.16 381.26 3802.54 368.76 3806.7 354.438C3811.13 340.115 3813.34 324.62 3813.34 307.953C3813.34 291.286 3811.52 274.88 3807.88 258.734C3804.49 242.589 3799.8 226.703 3793.81 211.078C3788.08 195.193 3781.31 179.568 3773.5 164.203C3765.95 148.839 3757.88 133.344 3749.28 117.719C3745.64 110.688 3743.81 104.307 3743.81 98.5781C3743.81 88.4219 3749.15 79.8281 3759.83 72.7969L3775.84 62.25C3782.88 57.5625 3789.52 55.2188 3795.77 55.2188C3805.4 55.2188 3813.47 61.0781 3819.98 72.7969C3829.88 90.2448 3839.39 107.953 3848.5 125.922C3857.61 143.63 3865.56 161.859 3872.33 180.609C3879.36 199.359 3884.83 218.76 3888.73 238.812C3892.9 258.604 3894.98 279.047 3894.98 300.141C3894.98 329.568 3890.04 356.391 3880.14 380.609C3870.51 404.828 3856.7 425.661 3838.73 443.109C3820.77 460.297 3799.15 473.578 3773.89 482.953C3748.89 492.589 3721.03 497.406 3690.3 497.406C3656.96 497.406 3627.28 491.547 3601.23 479.828C3575.45 468.37 3553.71 452.484 3536 432.172C3518.29 411.599 3504.88 387.38 3495.77 359.516C3486.65 331.391 3482.09 300.922 3482.09 268.109C3482.09 245.193 3483.4 222.276 3486 199.359C3488.86 176.182 3492.12 154.568 3495.77 134.516ZM4150.36 482.562C4142.81 483.865 4136.04 485.297 4130.05 486.859C4124.06 488.682 4116.64 489.594 4107.78 489.594C4098.15 489.594 4090.72 486.859 4085.52 481.391C4080.31 475.922 4077.7 469.802 4077.7 463.031C4077.7 457.562 4078.61 450.531 4080.44 441.938C4082.26 433.083 4083.17 424.229 4083.17 415.375C4081.35 381.781 4078.88 348.578 4075.75 315.766C4072.89 282.693 4070.02 252.484 4067.16 225.141C4064.29 197.797 4061.82 174.49 4059.73 155.219C4057.65 135.688 4056.61 122.406 4056.61 115.375C4056.61 110.688 4057.78 106.391 4060.12 102.484C4062.47 98.3177 4065.72 94.6719 4069.89 91.5469C4074.06 88.4219 4078.88 86.0781 4084.34 84.5156C4090.07 82.6927 4096.06 81.7812 4102.31 81.7812C4114.55 81.7812 4123.54 83.7344 4129.27 87.6406C4134.99 91.2865 4138.51 97.276 4139.81 105.609C4147.1 161.599 4152.31 213.031 4155.44 259.906C4158.82 306.521 4161.17 350.271 4162.47 391.156C4162.47 397.146 4164.03 401.703 4167.16 404.828C4170.54 407.953 4174.84 409.516 4180.05 409.516C4190.46 409.516 4201.01 408.995 4211.69 407.953C4222.36 406.651 4233.04 405.349 4243.72 404.047C4254.4 402.745 4264.94 401.573 4275.36 400.531C4286.04 399.229 4296.32 398.578 4306.22 398.578C4312.73 398.578 4317.94 399.359 4321.84 400.922C4326.01 402.484 4329.14 404.568 4331.22 407.172C4333.56 409.776 4334.99 412.771 4335.52 416.156C4336.3 419.281 4336.69 422.406 4336.69 425.531C4336.69 430.479 4336.17 435.427 4335.12 440.375C4334.08 445.323 4332.26 449.88 4329.66 454.047C4327.05 457.953 4323.54 461.208 4319.11 463.812C4314.68 466.677 4309.08 468.37 4302.31 468.891C4270.28 472.016 4240.98 474.359 4214.42 475.922C4188.12 477.484 4166.77 479.698 4150.36 482.562ZM4430.34 378.266C4425.92 378.266 4422.53 376.052 4420.19 371.625C4418.1 367.198 4417.06 360.948 4417.06 352.875C4417.06 351.573 4417.06 350.141 4417.06 348.578C4417.06 346.755 4417.32 343.37 4417.84 338.422C4418.62 319.672 4427.87 308.734 4445.58 305.609L4454.56 304.828C4460.55 304.047 4465.24 302.224 4468.62 299.359C4472.01 296.234 4474.48 291.938 4476.05 286.469C4480.47 271.625 4484.9 256.651 4489.33 241.547C4493.76 226.443 4498.44 211.469 4503.39 196.625C4505.99 188.292 4508.6 179.438 4511.2 170.062C4514.07 160.427 4517.06 150.922 4520.19 141.547C4523.57 132.172 4527.35 122.927 4531.52 113.812C4535.94 104.698 4540.89 96.3646 4546.36 88.8125C4548.7 85.6875 4551.96 82.4323 4556.12 79.0469C4560.29 75.6615 4564.98 72.6667 4570.19 70.0625C4575.66 67.1979 4581.39 64.9844 4587.38 63.4219C4593.62 61.599 4599.74 60.6875 4605.73 60.6875C4613.55 60.6875 4621.23 63.1615 4628.78 68.1094C4638.94 75.1406 4648.96 83.6042 4658.86 93.5C4668.76 103.396 4679.82 116.026 4692.06 131.391C4704.3 146.755 4718.49 165.375 4734.64 187.25C4750.79 208.865 4770.19 235.036 4792.84 265.766C4796.23 269.672 4799.74 272.667 4803.39 274.75C4807.3 276.573 4811.85 277.484 4817.06 277.484H4839.33C4848.44 277.484 4855.47 279.698 4860.42 284.125C4865.63 288.292 4868.23 294.151 4868.23 301.703C4868.23 303.266 4868.1 305.089 4867.84 307.172C4867.84 309.255 4867.45 311.339 4866.67 313.422L4859.25 335.297C4858.73 337.38 4858.34 339.203 4858.08 340.766C4857.82 342.328 4857.69 343.891 4857.69 345.453C4857.69 350.922 4859.51 356.521 4863.16 362.25L4904.95 419.281C4909.64 426.312 4911.98 432.953 4911.98 439.203C4911.98 448.578 4906.65 456.781 4895.97 463.812L4881.12 474.359C4877.48 476.703 4873.96 478.526 4870.58 479.828C4867.45 481.13 4864.2 481.781 4860.81 481.781C4856.12 481.781 4851.7 480.349 4847.53 477.484C4843.62 474.88 4839.85 471.234 4836.2 466.547C4823.7 448.839 4811.07 431.391 4798.31 414.203C4785.81 397.016 4773.05 379.958 4760.03 363.031C4754.04 354.698 4746.1 350.531 4736.2 350.531C4704.43 351.833 4672.92 353.656 4641.67 356C4610.68 358.083 4579.56 360.688 4548.31 363.812C4537.11 364.854 4530.08 370.844 4527.22 381.781L4509.64 446.234C4504.95 463.422 4494.54 472.016 4478.39 472.016H4472.14L4460.03 470.453C4451.18 469.672 4444.41 466.938 4439.72 462.25C4435.29 457.562 4433.08 451.443 4433.08 443.891C4433.08 442.328 4433.21 440.635 4433.47 438.812C4433.73 436.99 4434.12 435.036 4434.64 432.953C4435.94 427.745 4437.24 422.406 4438.55 416.938C4440.11 411.469 4441.67 406.13 4443.23 400.922C4443.76 398.839 4444.15 397.016 4444.41 395.453C4444.67 393.63 4444.8 391.938 4444.8 390.375C4444.8 382.302 4441.67 378.266 4435.42 378.266H4430.34ZM4616.28 172.016C4613.68 169.672 4611.33 167.719 4609.25 166.156C4607.17 164.594 4604.95 163.812 4602.61 163.812C4596.1 163.812 4591.54 168.37 4588.94 177.484C4583.73 192.849 4578.65 208.083 4573.7 223.188C4569.02 238.031 4564.2 253.266 4559.25 268.891C4558.73 270.193 4558.47 271.365 4558.47 272.406C4558.47 273.448 4558.47 274.62 4558.47 275.922C4558.47 285.557 4563.55 290.375 4573.7 290.375H4577.61C4593.23 288.292 4608.86 286.729 4624.48 285.688C4640.11 284.385 4655.73 283.344 4671.36 282.562C4676.57 282.042 4680.6 280.74 4683.47 278.656C4686.59 276.312 4688.16 273.318 4688.16 269.672C4688.16 266.286 4686.59 262.25 4683.47 257.562C4672.53 242.979 4661.46 228.656 4650.27 214.594C4639.33 200.271 4628 186.078 4616.28 172.016ZM5074.39 131.391C5072.31 131.391 5068.27 131.911 5062.28 132.953C5056.55 133.734 5049.78 134.776 5041.97 136.078C5034.16 137.38 5025.95 138.943 5017.36 140.766C5008.77 142.328 5000.69 143.76 4993.14 145.062C4985.59 146.365 4979.08 147.536 4973.61 148.578C4967.88 149.359 4964.1 149.75 4962.28 149.75C4944.83 149.75 4936.11 140.635 4936.11 122.406C4936.11 117.458 4936.63 112.641 4937.67 107.953C4938.45 103.005 4940.02 98.5781 4942.36 94.6719C4944.7 90.5052 4947.83 86.9896 4951.73 84.125C4955.64 81.2604 4960.59 79.3073 4966.58 78.2656C4997.05 73.5781 5027.39 68.6302 5057.59 63.4219C5087.8 58.2135 5118.27 52.7448 5149 47.0156C5155.77 45.7135 5161.89 44.5417 5167.36 43.5C5172.83 42.1979 5178.95 40.5052 5185.72 38.4219C5193.01 36.3385 5200.95 34.3854 5209.55 32.5625C5218.14 30.4792 5226.73 28.6562 5235.33 27.0938C5244.18 25.5312 5252.65 24.2292 5260.72 23.1875C5269.05 22.1458 5276.6 21.625 5283.38 21.625C5291.71 21.625 5297.96 24.3594 5302.12 29.8281C5306.55 35.0365 5308.77 42.4583 5308.77 52.0938C5308.77 57.0417 5308.38 61.8594 5307.59 66.5469C5306.81 70.974 5305.38 75.0104 5303.3 78.6562C5301.21 82.3021 5298.35 85.2969 5294.7 87.6406C5291.06 89.9844 5286.37 91.4167 5280.64 91.9375C5265.8 94.0208 5249.91 96.625 5232.98 99.75C5216.06 102.615 5201.34 105.87 5188.84 109.516C5183.64 111.078 5179.73 113.682 5177.12 117.328C5174.52 120.714 5172.83 125.01 5172.05 130.219C5171.27 135.167 5170.74 140.245 5170.48 145.453C5170.48 150.401 5170.48 155.219 5170.48 159.906C5170.48 170.844 5170.88 181.781 5171.66 192.719C5172.7 203.656 5173.61 214.594 5174.39 225.531C5176.73 263.031 5180.25 300.141 5184.94 336.859C5189.89 373.578 5195.22 410.688 5200.95 448.188C5201.47 449.49 5201.73 450.792 5201.73 452.094C5201.73 453.396 5201.73 454.698 5201.73 456C5201.73 470.323 5193.66 480.479 5177.52 486.469L5159.94 491.938C5155.25 493.5 5150.69 494.281 5146.27 494.281C5139.49 494.281 5134.03 492.068 5129.86 487.641C5125.69 483.474 5122.96 477.224 5121.66 468.891C5114.36 424.099 5107.98 379.568 5102.52 335.297C5097.05 290.766 5093.53 245.974 5091.97 200.922C5091.45 193.63 5091.06 185.688 5090.8 177.094C5090.54 168.5 5090.41 159.646 5090.41 150.531C5090.41 137.771 5085.07 131.391 5074.39 131.391ZM5594.22 504.828C5565.83 504.828 5539.66 500.01 5515.7 490.375C5492.01 480.74 5471.56 467.328 5454.38 450.141C5437.19 432.693 5423.78 411.99 5414.14 388.031C5404.51 364.073 5399.69 337.641 5399.69 308.734C5399.69 293.109 5400.99 278.135 5403.59 263.812C5406.46 249.229 5410.23 235.688 5414.92 223.188C5417.01 218.24 5418.05 214.724 5418.05 212.641C5418.05 210.036 5417.4 207.562 5416.09 205.219C5414.79 202.875 5413.36 200.401 5411.8 197.797C5410.23 195.193 5408.8 192.458 5407.5 189.594C5406.2 186.729 5405.55 183.474 5405.55 179.828C5405.55 168.891 5411.8 158.214 5424.3 147.797C5436.8 137.12 5453.33 127.745 5473.91 119.672C5494.48 111.339 5517.79 104.698 5543.83 99.75C5569.87 94.5417 5596.56 91.9375 5623.91 91.9375C5657.5 91.9375 5687.71 96.2344 5714.53 104.828C5741.61 113.422 5764.53 125.792 5783.28 141.938C5802.29 157.823 5816.88 177.224 5827.03 200.141C5837.19 223.057 5842.27 248.839 5842.27 277.484C5842.27 309.516 5835.89 339.464 5823.12 367.328C5810.36 394.932 5792.79 418.891 5770.39 439.203C5748.26 459.516 5722.08 475.531 5691.88 487.25C5661.67 498.969 5629.11 504.828 5594.22 504.828ZM5763.75 292.719C5763.75 272.406 5760.23 254.177 5753.2 238.031C5746.17 221.885 5736.02 208.344 5722.73 197.406C5709.45 186.208 5693.05 177.745 5673.52 172.016C5654.24 166.026 5632.37 163.031 5607.89 163.031C5564.92 163.031 5532.5 173.969 5510.62 195.844C5489.01 217.458 5478.2 249.75 5478.2 292.719C5478.2 313.552 5481.46 332.693 5487.97 350.141C5494.48 367.328 5503.59 382.172 5515.31 394.672C5527.03 406.911 5540.96 416.547 5557.11 423.578C5573.52 430.349 5591.48 433.734 5611.02 433.734C5633.41 433.734 5653.98 430.349 5672.73 423.578C5691.48 416.547 5707.5 406.781 5720.78 394.281C5734.32 381.781 5744.87 366.938 5752.42 349.75C5759.97 332.302 5763.75 313.292 5763.75 292.719ZM6098.81 159.906C6093.6 161.99 6088.53 163.031 6083.58 163.031C6071.08 163.031 6062.48 155.609 6057.8 140.766C6056.49 136.859 6055.58 133.604 6055.06 131C6054.8 128.396 6054.67 126.052 6054.67 123.969C6054.67 111.729 6061.57 102.615 6075.38 96.625C6102.72 85.6875 6130.58 76.8333 6158.97 70.0625C6187.35 63.2917 6216 59.9062 6244.91 59.9062C6258.45 59.9062 6271.73 61.3385 6284.75 64.2031C6298.03 67.0677 6309.88 72.0156 6320.3 79.0469C6330.71 86.0781 6339.18 95.4531 6345.69 107.172C6352.2 118.891 6355.45 133.604 6355.45 151.312C6355.45 163.812 6352.85 175.792 6347.64 187.25C6342.69 198.708 6336.05 209.646 6327.72 220.062C6319.39 230.479 6309.88 240.375 6299.2 249.75C6288.53 259.125 6277.59 267.719 6266.39 275.531C6255.19 283.344 6244.12 290.505 6233.19 297.016C6222.25 303.266 6212.35 308.734 6203.5 313.422C6195.95 317.849 6192.17 322.406 6192.17 327.094C6192.17 332.562 6196.21 336.859 6204.28 339.984C6232.15 349.88 6260.66 359.125 6289.83 367.719C6318.99 376.312 6348.55 385.948 6378.5 396.625C6392.56 401.833 6399.59 409.906 6399.59 420.844C6399.59 426.052 6398.03 431.391 6394.91 436.859C6392.04 442.068 6388.79 446.885 6385.14 451.312C6377.59 462.51 6368.21 468.109 6357.02 468.109C6353.11 468.109 6348.29 467.328 6342.56 465.766C6325.64 459.255 6307.41 452.484 6287.88 445.453C6268.6 438.422 6248.81 431.521 6228.5 424.75C6208.45 417.719 6188.66 411.078 6169.12 404.828C6149.59 398.318 6131.49 392.458 6114.83 387.25C6108.84 385.688 6104.8 384.906 6102.72 384.906C6100.64 384.906 6098.94 385.427 6097.64 386.469C6096.6 387.25 6096.08 389.073 6096.08 391.938C6096.08 392.719 6096.21 393.76 6096.47 395.062C6096.73 396.104 6096.86 397.276 6096.86 398.578C6097.64 402.484 6098.55 407.693 6099.59 414.203C6100.9 420.453 6102.07 426.964 6103.11 433.734C6104.41 440.505 6105.45 447.016 6106.23 453.266C6107.02 459.255 6107.41 464.203 6107.41 468.109C6107.41 482.693 6099.46 492.849 6083.58 498.578L6066 504.047C6063.4 504.828 6061.05 505.349 6058.97 505.609C6056.89 506.13 6054.67 506.391 6052.33 506.391C6038.01 506.391 6029.67 497.536 6027.33 479.828C6021.08 432.432 6013.01 385.688 6003.11 339.594C5993.47 293.5 5982.41 247.536 5969.91 201.703C5969.12 199.099 5968.6 196.885 5968.34 195.062C5968.34 192.979 5968.34 191.156 5968.34 189.594C5968.34 175.792 5975.77 166.417 5990.61 161.469C5996.08 159.646 6000.51 158.214 6003.89 157.172C6007.54 156.13 6010.4 155.349 6012.48 154.828C6014.83 154.047 6016.52 153.526 6017.56 153.266C6018.86 153.005 6020.04 152.875 6021.08 152.875C6035.14 152.875 6044.26 160.818 6048.42 176.703C6053.89 197.016 6058.97 216.677 6063.66 235.688C6068.6 254.698 6073.03 273.448 6076.94 291.938C6079.02 301.052 6082.8 305.609 6088.27 305.609C6089.83 305.609 6091.65 305.349 6093.73 304.828C6095.82 304.047 6098.29 303.005 6101.16 301.703C6109.49 297.276 6119.52 291.807 6131.23 285.297C6143.21 278.786 6155.58 271.625 6168.34 263.812C6181.36 255.74 6194.12 247.276 6206.62 238.422C6219.39 229.568 6230.71 220.714 6240.61 211.859C6250.77 203.005 6258.97 194.281 6265.22 185.688C6271.47 177.094 6274.59 169.021 6274.59 161.469C6274.59 156.781 6273.81 152.484 6272.25 148.578C6270.95 144.672 6268.34 141.286 6264.44 138.422C6260.53 135.557 6255.19 133.344 6248.42 131.781C6241.91 130.219 6233.58 129.438 6223.42 129.438C6213.53 129.438 6203.11 130.349 6192.17 132.172C6181.49 133.734 6170.82 135.948 6160.14 138.812C6149.46 141.677 6138.92 144.932 6128.5 148.578C6118.08 152.224 6108.19 156 6098.81 159.906Z" fill="#537282"/>
<path d="M4149.85 759C4140.11 759 4131.25 757.4 4123.25 754.2C4115.25 751 4108.38 746.333 4102.65 740.2C4096.91 734.067 4092.45 726.533 4089.25 717.6C4086.18 708.533 4084.65 698.2 4084.65 686.6C4084.65 675 4086.38 664.733 4089.85 655.8C4093.45 646.733 4098.25 639.133 4104.25 633C4110.25 626.867 4117.25 622.2 4125.25 619C4133.25 615.8 4141.78 614.2 4150.85 614.2C4156.58 614.2 4161.71 614.6 4166.25 615.4C4170.91 616.2 4174.91 617.133 4178.25 618.2C4181.71 619.267 4184.51 620.333 4186.65 621.4C4188.78 622.467 4190.25 623.267 4191.05 623.8L4185.45 639.8C4184.25 639 4182.51 638.133 4180.25 637.2C4177.98 636.267 4175.38 635.333 4172.45 634.4C4169.65 633.467 4166.51 632.733 4163.05 632.2C4159.71 631.533 4156.31 631.2 4152.85 631.2C4145.51 631.2 4138.91 632.467 4133.05 635C4127.18 637.533 4122.18 641.2 4118.05 646C4113.91 650.8 4110.71 656.667 4108.45 663.6C4106.31 670.4 4105.25 678.067 4105.25 686.6C4105.25 694.867 4106.18 702.4 4108.05 709.2C4110.05 716 4112.98 721.867 4116.85 726.8C4120.71 731.6 4125.51 735.333 4131.25 738C4137.11 740.667 4143.91 742 4151.65 742C4160.58 742 4167.98 741.067 4173.85 739.2C4179.71 737.333 4184.11 735.667 4187.05 734.2L4192.05 750.2C4191.11 750.867 4189.45 751.733 4187.05 752.8C4184.65 753.733 4181.65 754.667 4178.05 755.6C4174.45 756.533 4170.25 757.333 4165.45 758C4160.65 758.667 4155.45 759 4149.85 759ZM4272.27 742.6C4276.67 742.6 4280.54 742.533 4283.87 742.4C4287.34 742.133 4290.2 741.733 4292.47 741.2V710.2C4291.14 709.533 4288.94 709 4285.87 708.6C4282.94 708.067 4279.34 707.8 4275.07 707.8C4272.27 707.8 4269.27 708 4266.07 708.4C4263 708.8 4260.14 709.667 4257.47 711C4254.94 712.2 4252.8 713.933 4251.07 716.2C4249.34 718.333 4248.47 721.2 4248.47 724.8C4248.47 731.467 4250.6 736.133 4254.87 738.8C4259.14 741.333 4264.94 742.6 4272.27 742.6ZM4270.67 649.4C4278.14 649.4 4284.4 650.4 4289.47 652.4C4294.67 654.267 4298.8 657 4301.87 660.6C4305.07 664.067 4307.34 668.267 4308.67 673.2C4310 678 4310.67 683.333 4310.67 689.2V754.2C4309.07 754.467 4306.8 754.867 4303.87 755.4C4301.07 755.8 4297.87 756.2 4294.27 756.6C4290.67 757 4286.74 757.333 4282.47 757.6C4278.34 758 4274.2 758.2 4270.07 758.2C4264.2 758.2 4258.8 757.6 4253.87 756.4C4248.94 755.2 4244.67 753.333 4241.07 750.8C4237.47 748.133 4234.67 744.667 4232.67 740.4C4230.67 736.133 4229.67 731 4229.67 725C4229.67 719.267 4230.8 714.333 4233.07 710.2C4235.47 706.067 4238.67 702.733 4242.67 700.2C4246.67 697.667 4251.34 695.8 4256.67 694.6C4262 693.4 4267.6 692.8 4273.47 692.8C4275.34 692.8 4277.27 692.933 4279.27 693.2C4281.27 693.333 4283.14 693.6 4284.87 694C4286.74 694.267 4288.34 694.533 4289.67 694.8C4291 695.067 4291.94 695.267 4292.47 695.4V690.2C4292.47 687.133 4292.14 684.133 4291.47 681.2C4290.8 678.133 4289.6 675.467 4287.87 673.2C4286.14 670.8 4283.74 668.933 4280.67 667.6C4277.74 666.133 4273.87 665.4 4269.07 665.4C4262.94 665.4 4257.54 665.867 4252.87 666.8C4248.34 667.6 4244.94 668.467 4242.67 669.4L4240.47 654C4242.87 652.933 4246.87 651.933 4252.47 651C4258.07 649.933 4264.14 649.4 4270.67 649.4ZM4396.76 758C4385.3 757.733 4377.16 755.267 4372.36 750.6C4367.56 745.933 4365.16 738.667 4365.16 728.8V604L4383.76 600.8V725.8C4383.76 728.867 4384.03 731.4 4384.56 733.4C4385.1 735.4 4385.96 737 4387.16 738.2C4388.36 739.4 4389.96 740.333 4391.96 741C4393.96 741.533 4396.43 742 4399.36 742.4L4396.76 758ZM4489.45 758.4C4481.05 758.4 4473.65 757.067 4467.25 754.4C4460.98 751.733 4455.65 748 4451.25 743.2C4446.98 738.4 4443.78 732.733 4441.65 726.2C4439.52 719.533 4438.45 712.2 4438.45 704.2C4438.45 696.2 4439.58 688.867 4441.85 682.2C4444.25 675.533 4447.58 669.8 4451.85 665C4456.12 660.067 4461.32 656.267 4467.45 653.6C4473.72 650.8 4480.65 649.4 4488.25 649.4C4492.92 649.4 4497.58 649.8 4502.25 650.6C4506.92 651.4 4511.38 652.667 4515.65 654.4L4511.45 670.2C4508.65 668.867 4505.38 667.8 4501.65 667C4498.05 666.2 4494.18 665.8 4490.05 665.8C4479.65 665.8 4471.65 669.067 4466.05 675.6C4460.58 682.133 4457.85 691.667 4457.85 704.2C4457.85 709.8 4458.45 714.933 4459.65 719.6C4460.98 724.267 4462.98 728.267 4465.65 731.6C4468.45 734.933 4471.98 737.533 4476.25 739.4C4480.52 741.133 4485.72 742 4491.85 742C4496.78 742 4501.25 741.533 4505.25 740.6C4509.25 739.667 4512.38 738.667 4514.65 737.6L4517.25 753.2C4516.18 753.867 4514.65 754.533 4512.65 755.2C4510.65 755.733 4508.38 756.2 4505.85 756.6C4503.32 757.133 4500.58 757.533 4497.65 757.8C4494.85 758.2 4492.12 758.4 4489.45 758.4ZM4644.02 753C4639.75 754.067 4634.09 755.2 4627.02 756.4C4620.09 757.6 4612.02 758.2 4602.82 758.2C4594.82 758.2 4588.09 757.067 4582.62 754.8C4577.15 752.4 4572.75 749.067 4569.42 744.8C4566.09 740.533 4563.69 735.533 4562.22 729.8C4560.75 723.933 4560.02 717.467 4560.02 710.4V652H4578.62V706.4C4578.62 719.067 4580.62 728.133 4584.62 733.6C4588.62 739.067 4595.35 741.8 4604.82 741.8C4606.82 741.8 4608.89 741.733 4611.02 741.6C4613.15 741.467 4615.15 741.333 4617.02 741.2C4618.89 740.933 4620.55 740.733 4622.02 740.6C4623.62 740.333 4624.75 740.067 4625.42 739.8V652H4644.02V753ZM4731.26 758C4719.8 757.733 4711.66 755.267 4706.86 750.6C4702.06 745.933 4699.66 738.667 4699.66 728.8V604L4718.26 600.8V725.8C4718.26 728.867 4718.53 731.4 4719.06 733.4C4719.6 735.4 4720.46 737 4721.66 738.2C4722.86 739.4 4724.46 740.333 4726.46 741C4728.46 741.533 4730.93 742 4733.86 742.4L4731.26 758ZM4813.95 742.6C4818.35 742.6 4822.22 742.533 4825.55 742.4C4829.02 742.133 4831.88 741.733 4834.15 741.2V710.2C4832.82 709.533 4830.62 709 4827.55 708.6C4824.62 708.067 4821.02 707.8 4816.75 707.8C4813.95 707.8 4810.95 708 4807.75 708.4C4804.68 708.8 4801.82 709.667 4799.15 711C4796.62 712.2 4794.48 713.933 4792.75 716.2C4791.02 718.333 4790.15 721.2 4790.15 724.8C4790.15 731.467 4792.28 736.133 4796.55 738.8C4800.82 741.333 4806.62 742.6 4813.95 742.6ZM4812.35 649.4C4819.82 649.4 4826.08 650.4 4831.15 652.4C4836.35 654.267 4840.48 657 4843.55 660.6C4846.75 664.067 4849.02 668.267 4850.35 673.2C4851.68 678 4852.35 683.333 4852.35 689.2V754.2C4850.75 754.467 4848.48 754.867 4845.55 755.4C4842.75 755.8 4839.55 756.2 4835.95 756.6C4832.35 757 4828.42 757.333 4824.15 757.6C4820.02 758 4815.88 758.2 4811.75 758.2C4805.88 758.2 4800.48 757.6 4795.55 756.4C4790.62 755.2 4786.35 753.333 4782.75 750.8C4779.15 748.133 4776.35 744.667 4774.35 740.4C4772.35 736.133 4771.35 731 4771.35 725C4771.35 719.267 4772.48 714.333 4774.75 710.2C4777.15 706.067 4780.35 702.733 4784.35 700.2C4788.35 697.667 4793.02 695.8 4798.35 694.6C4803.68 693.4 4809.28 692.8 4815.15 692.8C4817.02 692.8 4818.95 692.933 4820.95 693.2C4822.95 693.333 4824.82 693.6 4826.55 694C4828.42 694.267 4830.02 694.533 4831.35 694.8C4832.68 695.067 4833.62 695.267 4834.15 695.4V690.2C4834.15 687.133 4833.82 684.133 4833.15 681.2C4832.48 678.133 4831.28 675.467 4829.55 673.2C4827.82 670.8 4825.42 668.933 4822.35 667.6C4819.42 666.133 4815.55 665.4 4810.75 665.4C4804.62 665.4 4799.22 665.867 4794.55 666.8C4790.02 667.6 4786.62 668.467 4784.35 669.4L4782.15 654C4784.55 652.933 4788.55 651.933 4794.15 651C4799.75 649.933 4805.82 649.4 4812.35 649.4ZM4924.64 652H4964.04V667.6H4924.64V715.6C4924.64 720.8 4925.04 725.133 4925.84 728.6C4926.64 731.933 4927.84 734.6 4929.44 736.6C4931.04 738.467 4933.04 739.8 4935.44 740.6C4937.84 741.4 4940.64 741.8 4943.84 741.8C4949.44 741.8 4953.91 741.2 4957.24 740C4960.71 738.667 4963.11 737.733 4964.44 737.2L4968.04 752.6C4966.18 753.533 4962.91 754.667 4958.24 756C4953.58 757.467 4948.24 758.2 4942.24 758.2C4935.18 758.2 4929.31 757.333 4924.64 755.6C4920.11 753.733 4916.44 751 4913.64 747.4C4910.84 743.8 4908.84 739.4 4907.64 734.2C4906.58 728.867 4906.04 722.733 4906.04 715.8V623L4924.64 619.8V652ZM5003.96 704.2C5003.96 695 5005.29 687 5007.96 680.2C5010.62 673.267 5014.16 667.533 5018.56 663C5022.96 658.467 5028.02 655.067 5033.76 652.8C5039.49 650.533 5045.36 649.4 5051.36 649.4C5065.36 649.4 5076.09 653.8 5083.56 662.6C5091.02 671.267 5094.76 684.533 5094.76 702.4C5094.76 703.2 5094.76 704.267 5094.76 705.6C5094.76 706.8 5094.69 707.933 5094.56 709H5023.36C5024.16 719.8 5027.29 728 5032.76 733.6C5038.22 739.2 5046.76 742 5058.36 742C5064.89 742 5070.36 741.467 5074.76 740.4C5079.29 739.2 5082.69 738.067 5084.96 737L5087.56 752.6C5085.29 753.8 5081.29 755.067 5075.56 756.4C5069.96 757.733 5063.56 758.4 5056.36 758.4C5047.29 758.4 5039.42 757.067 5032.76 754.4C5026.22 751.6 5020.82 747.8 5016.56 743C5012.29 738.2 5009.09 732.533 5006.96 726C5004.96 719.333 5003.96 712.067 5003.96 704.2ZM5075.36 694C5075.49 685.6 5073.36 678.733 5068.96 673.4C5064.69 667.933 5058.76 665.2 5051.16 665.2C5046.89 665.2 5043.09 666.067 5039.76 667.8C5036.56 669.4 5033.82 671.533 5031.56 674.2C5029.29 676.867 5027.49 679.933 5026.16 683.4C5024.96 686.867 5024.16 690.4 5023.76 694H5075.36ZM5203.57 775.4C5205.03 776.067 5206.9 776.667 5209.17 777.2C5211.57 777.867 5213.9 778.2 5216.17 778.2C5223.5 778.2 5229.23 776.533 5233.37 773.2C5237.5 770 5241.23 764.733 5244.57 757.4C5236.17 741.4 5228.3 724.467 5220.97 706.6C5213.77 688.6 5207.77 670.4 5202.97 652H5222.97C5224.43 658 5226.17 664.467 5228.17 671.4C5230.3 678.333 5232.63 685.467 5235.17 692.8C5237.7 700.133 5240.43 707.467 5243.37 714.8C5246.3 722.133 5249.37 729.2 5252.57 736C5257.63 722 5262.03 708.133 5265.77 694.4C5269.5 680.667 5273.03 666.533 5276.37 652H5295.57C5290.77 671.6 5285.43 690.467 5279.57 708.6C5273.7 726.6 5267.37 743.467 5260.57 759.2C5257.9 765.2 5255.1 770.333 5252.17 774.6C5249.37 779 5246.23 782.6 5242.77 785.4C5239.3 788.2 5235.37 790.267 5230.97 791.6C5226.7 792.933 5221.83 793.6 5216.37 793.6C5214.9 793.6 5213.37 793.467 5211.77 793.2C5210.17 793.067 5208.57 792.8 5206.97 792.4C5205.5 792.133 5204.1 791.8 5202.77 791.4C5201.57 791 5200.7 790.667 5200.17 790.4L5203.57 775.4ZM5430.98 704C5430.98 712.267 5429.78 719.733 5427.38 726.4C5424.98 733.067 5421.58 738.8 5417.18 743.6C5412.91 748.4 5407.78 752.133 5401.78 754.8C5395.78 757.333 5389.25 758.6 5382.18 758.6C5375.11 758.6 5368.58 757.333 5362.58 754.8C5356.58 752.133 5351.38 748.4 5346.98 743.6C5342.71 738.8 5339.38 733.067 5336.98 726.4C5334.58 719.733 5333.38 712.267 5333.38 704C5333.38 695.867 5334.58 688.467 5336.98 681.8C5339.38 675 5342.71 669.2 5346.98 664.4C5351.38 659.6 5356.58 655.933 5362.58 653.4C5368.58 650.733 5375.11 649.4 5382.18 649.4C5389.25 649.4 5395.78 650.733 5401.78 653.4C5407.78 655.933 5412.91 659.6 5417.18 664.4C5421.58 669.2 5424.98 675 5427.38 681.8C5429.78 688.467 5430.98 695.867 5430.98 704ZM5411.58 704C5411.58 692.267 5408.91 683 5403.58 676.2C5398.38 669.267 5391.25 665.8 5382.18 665.8C5373.11 665.8 5365.91 669.267 5360.58 676.2C5355.38 683 5352.78 692.267 5352.78 704C5352.78 715.733 5355.38 725.067 5360.58 732C5365.91 738.8 5373.11 742.2 5382.18 742.2C5391.25 742.2 5398.38 738.8 5403.58 732C5408.91 725.067 5411.58 715.733 5411.58 704ZM5563.95 753C5559.68 754.067 5554.02 755.2 5546.95 756.4C5540.02 757.6 5531.95 758.2 5522.75 758.2C5514.75 758.2 5508.02 757.067 5502.55 754.8C5497.08 752.4 5492.68 749.067 5489.35 744.8C5486.02 740.533 5483.62 735.533 5482.15 729.8C5480.68 723.933 5479.95 717.467 5479.95 710.4V652H5498.55V706.4C5498.55 719.067 5500.55 728.133 5504.55 733.6C5508.55 739.067 5515.28 741.8 5524.75 741.8C5526.75 741.8 5528.82 741.733 5530.95 741.6C5533.08 741.467 5535.08 741.333 5536.95 741.2C5538.82 740.933 5540.48 740.733 5541.95 740.6C5543.55 740.333 5544.68 740.067 5545.35 739.8V652H5563.95V753ZM5658.39 649.8C5659.99 649.8 5661.79 649.933 5663.79 650.2C5665.93 650.333 5667.99 650.6 5669.99 651C5671.99 651.267 5673.79 651.6 5675.39 652C5677.13 652.267 5678.39 652.533 5679.19 652.8L5675.99 669C5674.53 668.467 5672.06 667.867 5668.59 667.2C5665.26 666.4 5660.93 666 5655.59 666C5652.13 666 5648.66 666.4 5645.19 667.2C5641.86 667.867 5639.66 668.333 5638.59 668.6V756H5619.99V656.4C5624.39 654.8 5629.86 653.333 5636.39 652C5642.93 650.533 5650.26 649.8 5658.39 649.8ZM5887.63 756C5884.7 751.067 5881.3 745.533 5877.43 739.4C5873.7 733.267 5869.63 726.933 5865.23 720.4C5860.83 713.733 5856.23 707 5851.43 700.2C5846.76 693.4 5842.1 686.867 5837.43 680.6C5832.76 674.2 5828.23 668.2 5823.83 662.6C5819.43 657 5815.36 652.067 5811.63 647.8V756H5792.63V617.4H5808.03C5814.3 624.067 5820.96 631.867 5828.03 640.8C5835.23 649.6 5842.3 658.733 5849.23 668.2C5856.3 677.533 5862.9 686.733 5869.03 695.8C5875.3 704.867 5880.56 712.933 5884.83 720V617.4H5903.83V756H5887.63ZM5998.94 616C6018.4 616 6033.34 619.733 6043.74 627.2C6054.27 634.533 6059.54 645.533 6059.54 660.2C6059.54 668.2 6058.07 675.067 6055.14 680.8C6052.34 686.4 6048.2 691 6042.74 694.6C6037.4 698.067 6030.87 700.6 6023.14 702.2C6015.4 703.8 6006.67 704.6 5996.94 704.6H5981.54V756H5962.14V619.4C5967.6 618.067 5973.67 617.2 5980.34 616.8C5987.14 616.267 5993.34 616 5998.94 616ZM6000.54 633C5992.27 633 5985.94 633.2 5981.54 633.6V688H5996.14C6002.8 688 6008.8 687.6 6014.14 686.8C6019.47 685.867 6023.94 684.4 6027.54 682.4C6031.27 680.267 6034.14 677.4 6036.14 673.8C6038.14 670.2 6039.14 665.6 6039.14 660C6039.14 654.667 6038.07 650.267 6035.94 646.8C6033.94 643.333 6031.14 640.6 6027.54 638.6C6024.07 636.467 6020 635 6015.34 634.2C6010.67 633.4 6005.74 633 6000.54 633ZM6140.02 742.2C6160.28 742.2 6170.42 735.267 6170.42 721.4C6170.42 717.133 6169.48 713.533 6167.62 710.6C6165.88 707.533 6163.48 704.933 6160.42 702.8C6157.35 700.533 6153.82 698.6 6149.82 697C6145.95 695.4 6141.82 693.8 6137.42 692.2C6132.35 690.467 6127.55 688.533 6123.02 686.4C6118.48 684.133 6114.55 681.533 6111.22 678.6C6107.88 675.533 6105.22 671.933 6103.22 667.8C6101.35 663.667 6100.42 658.667 6100.42 652.8C6100.42 640.667 6104.55 631.2 6112.82 624.4C6121.08 617.6 6132.48 614.2 6147.02 614.2C6155.42 614.2 6163.02 615.133 6169.82 617C6176.75 618.733 6181.82 620.667 6185.02 622.8L6178.82 638.6C6176.02 636.867 6171.82 635.2 6166.22 633.6C6160.75 631.867 6154.35 631 6147.02 631C6143.28 631 6139.82 631.4 6136.62 632.2C6133.42 633 6130.62 634.2 6128.22 635.8C6125.82 637.4 6123.88 639.467 6122.42 642C6121.08 644.4 6120.42 647.267 6120.42 650.6C6120.42 654.333 6121.15 657.467 6122.62 660C6124.08 662.533 6126.15 664.8 6128.82 666.8C6131.48 668.667 6134.55 670.4 6138.02 672C6141.62 673.6 6145.55 675.2 6149.82 676.8C6155.82 679.2 6161.28 681.6 6166.22 684C6171.28 686.4 6175.62 689.267 6179.22 692.6C6182.95 695.933 6185.82 699.933 6187.82 704.6C6189.82 709.133 6190.82 714.667 6190.82 721.2C6190.82 733.333 6186.35 742.667 6177.42 749.2C6168.62 755.733 6156.15 759 6140.02 759C6134.55 759 6129.48 758.6 6124.82 757.8C6120.28 757.133 6116.22 756.333 6112.62 755.4C6109.02 754.333 6105.88 753.267 6103.22 752.2C6100.68 751 6098.68 750 6097.22 749.2L6103.02 733.2C6106.08 734.933 6110.75 736.867 6117.02 739C6123.28 741.133 6130.95 742.2 6140.02 742.2ZM6370.86 686.6C6370.86 697.933 6369 708.133 6365.26 717.2C6361.53 726.133 6356.53 733.733 6350.26 740C6344 746.133 6336.73 750.867 6328.46 754.2C6320.2 757.4 6311.53 759 6302.46 759C6293.4 759 6284.73 757.4 6276.46 754.2C6268.2 750.867 6260.93 746.133 6254.66 740C6248.4 733.733 6243.4 726.133 6239.66 717.2C6235.93 708.133 6234.06 697.933 6234.06 686.6C6234.06 675.267 6235.93 665.133 6239.66 656.2C6243.4 647.133 6248.4 639.533 6254.66 633.4C6260.93 627.133 6268.2 622.4 6276.46 619.2C6284.73 615.867 6293.4 614.2 6302.46 614.2C6311.53 614.2 6320.2 615.867 6328.46 619.2C6336.73 622.4 6344 627.133 6350.26 633.4C6356.53 639.533 6361.53 647.133 6365.26 656.2C6369 665.133 6370.86 675.267 6370.86 686.6ZM6356.26 686.6C6356.26 677.8 6354.93 669.8 6352.26 662.6C6349.6 655.267 6345.86 649 6341.06 643.8C6336.4 638.6 6330.73 634.6 6324.06 631.8C6317.53 629 6310.33 627.6 6302.46 627.6C6294.6 627.6 6287.33 629 6280.66 631.8C6274.13 634.6 6268.46 638.6 6263.66 643.8C6259 649 6255.33 655.267 6252.66 662.6C6250 669.8 6248.66 677.8 6248.66 686.6C6248.66 695.4 6250 703.467 6252.66 710.8C6255.33 718 6259 724.2 6263.66 729.4C6268.46 734.6 6274.13 738.6 6280.66 741.4C6287.33 744.2 6294.6 745.6 6302.46 745.6C6310.33 745.6 6317.53 744.2 6324.06 741.4C6330.73 738.6 6336.4 734.6 6341.06 729.4C6345.86 724.2 6349.6 718 6352.26 710.8C6354.93 703.467 6356.26 695.4 6356.26 686.6ZM6322.26 726.4C6319.2 720.4 6315.73 714.733 6311.86 709.4C6308.13 703.933 6304.86 699.6 6302.06 696.4H6288.66V726.4H6274.46V648.8C6278.06 648 6281.86 647.4 6285.86 647C6289.86 646.6 6293.53 646.4 6296.86 646.4C6308.33 646.4 6317.06 648.533 6323.06 652.8C6329.06 657.067 6332.06 663.533 6332.06 672.2C6332.06 677.133 6330.73 681.467 6328.06 685.2C6325.53 688.8 6321.86 691.6 6317.06 693.6C6318.4 695.2 6319.93 697.2 6321.66 699.6C6323.4 702 6325.2 704.667 6327.06 707.6C6328.93 710.533 6330.8 713.6 6332.66 716.8C6334.53 720 6336.2 723.2 6337.66 726.4H6322.26ZM6288.66 684.8H6296.26C6302.26 684.8 6307.26 684 6311.26 682.4C6315.26 680.667 6317.26 677.2 6317.26 672C6317.26 667.067 6315.33 663.667 6311.46 661.8C6307.73 659.8 6303.2 658.8 6297.86 658.8C6296.4 658.8 6294.86 658.867 6293.26 659C6291.66 659 6290.13 659.067 6288.66 659.2V684.8Z" fill="#537282"/>
<defs>
<filter id="filter0_d" x="0" y="0" width="1345" height="785" filterUnits="userSpaceOnUse" color-interpolation-filters="sRGB">
<feFlood flood-opacity="0" result="BackgroundImageFix"/>
<feColorMatrix in="SourceAlpha" type="matrix" values="0 0 0 0 0 0 0 0 0 0 0 0 0 0 0 0 0 0 127 0"/>
<feOffset dx="20" dy="20"/>
<feGaussianBlur stdDeviation="7.5"/>
<feColorMatrix type="matrix" values="0 0 0 0 0.745098 0 0 0 0 0.784314 0 0 0 0 1 0 0 0 0.25 0"/>
<feBlend mode="normal" in2="BackgroundImageFix" result="effect1_dropShadow"/>
<feBlend mode="normal" in="SourceGraphic" in2="effect1_dropShadow" result="shape"/>
</filter>
</defs>
</svg>
